# xmcd
#
# Track frame offsets: 
#        150
#        13172
#        24621
#        37371
#        51537
#        61901
#        72798
#        85186
#        102293
#        111676
#
# Disc length: 1692 seconds
#
# Revision: 5
# Processed by: cddbd v1.5.2PL0 Copyright (c) Steve Scherf et al.
# Submitted via: ExactAudioCopy v1.0b1
#
DISCID=92069a0a
DTITLE=Chris LeDoux - Sing Me a Song, Mr. Rodeo Man
DYEAR=1977
DGENRE=Country
TTITLE0=The Yellow Stud
TTITLE1=All Around Cowboy
TTITLE2=The Lawman Reverend Brown
TTITLE3=Our First Year
TTITLE4=Grange Hall Dance
TTITLE5=Billy The Kid
TTITLE6=Daddy's Biggest Dream
TTITLE7=Silver Tongued Devil
TTITLE8=The Rodeo Fan
TTITLE9=Bad Brahma Bull
EXTD=
EXTT0=
EXTT1=
EXTT2=
EXTT3=
EXTT4=
EXTT5=
EXTT6=
EXTT7=
EXTT8=
EXTT9=
PLAYORDER=
